<svg id="Слой_1" data-name="Слой 1" xmlns="http://www.w3.org/2000/svg" viewBox="0 0 294.16 73.26"><defs><style>.cls-1{fill:#1c1c1b;}.cls-2{fill:#f4f4f4;}.cls-3{fill:#ae7f4a;}.cls-4{font-size:14.88px;}.cls-4,.cls-6,.cls-7{font-family:FontOfKindness-Bold, Font Of Kindness;font-weight:700;}.cls-5,.cls-6{fill:#fa2323;}.cls-6{font-size:39.1px;}.cls-7{font-size:33.6px;fill:#fff;letter-spacing:0.02em;}</style></defs><title>Безымянный-222</title><path class="cls-1" d="M298,40a.26.26,0,0,1,0,.27c-1.31,3.09-4.84,3.55-8.25,2.88a7.41,7.41,0,0,1-8.41,2.76,7.93,7.93,0,0,1-4.34,1.74.39.39,0,0,1,.05.13c.61,4.44,1.05,9,1.28,13.45a.42.42,0,0,1-.54.45c-.39.34-.8.66-1.21,1a.5.5,0,0,1-.19.39c-3.09,2.48-6.23,4.9-9.38,7.31-2.93,2.25-6.12,5.52-9.62,6.76a.21.21,0,0,1-.24-.18.24.24,0,0,1,0-.09c2-2.63,5.28-4.4,7.87-6.38,3.55-2.7,7.05-5.46,10.57-8.2a.59.59,0,0,1,.49-.11c.39-.41.78-.82,1.21-1.19-.55-4.32-.91-8.72-1.09-13.06a.28.28,0,0,1,.07-.21,8.39,8.39,0,0,1-4.12-1.13l0,0a4.59,4.59,0,0,1-4.62-1.11c-.5-.51-2.29-4.05-3.25-4.54A.42.42,0,0,1,264,41h-.17a.49.49,0,0,1-.42-.24l-.06-.13a.58.58,0,0,1-.06-.29.35.35,0,0,1-.25-.46c2.2-5.63,5.72-12.34,12.5-13a3,3,0,0,1,.42,0,.8.8,0,0,1,0-.15c0-5.92-.29-12,.13-17.87-6.23,2.74-12.5,5.56-18.9,7.85a.47.47,0,0,1-.23.38.52.52,0,0,1,.13.34c.29,9.91.31,19.84.31,29.76s.35,19.84-.49,29.63a.57.57,0,0,1,0,.13.62.62,0,0,1,0,.16.52.52,0,0,1-.51.37L211.86,78c-14.81.18-29.69.78-44.49.47a.5.5,0,0,1-.3-.9.54.54,0,0,1,.3-.1c14.79-.66,29.68-.4,44.49-.57s29.48-.35,44.22-.51c-.39-9.7.18-19.49.19-29.19,0-9.92-.17-19.84-.28-29.76a.57.57,0,0,1,.09-.31c-14.73-.71-29.46-1.21-44.21-1.16-15,0-29.87.92-44.81,1.44a.41.41,0,0,1-.39-.2.67.67,0,0,1,0,.22q-.3,15-.33,29.93,0,7.63,0,15.26c0,4.85.46,9.85,0,14.66a.38.38,0,0,1-.76,0c-.64-5-.32-10.23-.35-15.26s0-9.78,0-14.66c0-.28,0-.56,0-.85a4.24,4.24,0,0,1-4.57.43A8.08,8.08,0,0,1,153,48.83a.35.35,0,0,1-.12-.07c-2.42,1.87-5.34,2.75-7.89.48a11.93,11.93,0,0,1-9.22-.77.55.55,0,0,1-.11-.87L145,38.33c2.45-2.43,4.81-5.33,7.77-7.16,5.37-3.31,8.61,1.23,12.6,4.16q.09-8.94.26-17.88a.55.55,0,0,1,1-.26.53.53,0,0,1,0-.25h0a.32.32,0,0,1-.17-.62c4.6-1.86,9.47-3.1,14.16-4.71s9.36-3.36,14-5.21a.45.45,0,0,1,.57.16c5.84-1.18,12.24-.87,18.18-1q9.15-.25,18.31-.22c12.56,0,25.12.51,37.65,1.34a46.52,46.52,0,0,1,7.09.52.37.37,0,0,1,.34.36.35.35,0,0,1,.21.3c.54,6.25.19,12.65.19,18.92a.41.41,0,0,1,0,.16c3.31.3,6,2.62,8.76,4.44,4,2.7,8.06,5.34,12,8.11A.53.53,0,0,1,298,40Zm-14-.41c3.63,2.51,9.47,4.08,13.07.74-3.16-2-6.27-4.19-9.39-6.29-2.85-1.92-5.94-4.76-9.27-5.75C270.94,26,266.68,34.39,264,39.86c1-.15,1.94,1.11,2.44,1.89s.88,1.67,1.43,2.43a4.36,4.36,0,0,0,3.6,1.76,7.89,7.89,0,0,1-2.66-3.61c-.19-.52.64-.86.89-.38,2.24,4.38,6.62,5.77,10.9,3.58a7.18,7.18,0,0,1-3.13-2.77c-.28-.47.4-1,.76-.59,3.07,3.64,7.38,3.85,10.71.73a15.84,15.84,0,0,1-5.49-2.52C282.92,40,283.56,39.21,284.05,39.55ZM275.19,8.09a46.06,46.06,0,0,1-5.35-.59.45.45,0,0,1-.47.28Q250.8,6.54,232.18,6.43q-9.47-.06-18.92.19c-5.95.15-12.18,1-18.11.48a.56.56,0,0,1-.34.38l-7.14,2.87c25.76-1.28,51.66-.07,77.39,1.25a.38.38,0,0,1,.31.55C268.63,10.75,271.92,9.42,275.19,8.09Zm-18.58,8.06c2.73-1.36,5.53-2.61,8.34-3.82-13-.55-26-1.29-39-1.57-13.21-.28-26.4,0-39.61.12a123.26,123.26,0,0,1-16.24,5.33c13.87-1.14,27.9-1.29,41.8-1.33C226.78,14.83,241.73,15.16,256.61,16.15Zm-91.33,29c0-2.93,0-5.85.07-8.78-1.86-1.12-3.31-2.67-5.07-3.93-3.66-2.64-7.05-.66-9.92,2.1-4.52,4.35-8.92,8.83-13.36,13.26a10.5,10.5,0,0,0,13.56-4.54.55.55,0,0,1,.95.55,11.94,11.94,0,0,1-5.67,5.1c4.78,1.31,8.15-1.52,10.43-5.79.31-.59,1.21-.06.9.53a17,17,0,0,1-3.64,4.55A8,8,0,0,0,162,43.3c.24-.6,1.21-.36,1,.27a8.18,8.18,0,0,1-1.63,2.74A3.77,3.77,0,0,0,165.28,45.17Z" transform="translate(-3.95 -5.32)"/><path class="cls-2" d="M297.12,40.29c-3.6,3.34-9.44,1.77-13.07-.74-.49-.34-1.13.47-.65.83a15.84,15.84,0,0,0,5.49,2.52c-3.33,3.12-7.64,2.91-10.71-.73-.36-.42-1,.12-.76.59a7.18,7.18,0,0,0,3.13,2.77c-4.28,2.19-8.66.8-10.9-3.58-.25-.48-1.08-.14-.89.38a7.89,7.89,0,0,0,2.66,3.61,4.36,4.36,0,0,1-3.6-1.76c-.55-.76-.92-1.64-1.43-2.43s-1.41-2-2.44-1.89c2.73-5.47,7-13.84,14.51-11.61,3.33,1,6.42,3.83,9.27,5.75C290.85,36.1,294,38.24,297.12,40.29Z" transform="translate(-3.95 -5.32)"/><path class="cls-3" d="M277.41,60.91c-.43.37-.82.78-1.21,1.19a.59.59,0,0,0-.49.11c-3.52,2.74-7,5.5-10.57,8.2-2.59,2-5.91,3.75-7.87,6.38a.24.24,0,0,0,0,.09l-.34,0c.84-9.79.48-19.81.49-29.63s0-19.85-.31-29.76a.52.52,0,0,0-.13-.34.47.47,0,0,0,.23-.38c6.4-2.29,12.67-5.11,18.9-7.85-.42,5.92-.12,12-.13,17.87a.8.8,0,0,0,0,.15,3,3,0,0,0-.42,0c-6.78.65-10.3,7.36-12.5,13a.35.35,0,0,0,.25.46.58.58,0,0,0,.06.29l.06.13a.49.49,0,0,0,.42.24H264a.42.42,0,0,0,.34-.15c1,.49,2.75,4,3.25,4.54a4.59,4.59,0,0,0,4.62,1.11l0,0a8.39,8.39,0,0,0,4.12,1.13.28.28,0,0,0-.07.21C276.5,52.19,276.86,56.59,277.41,60.91Z" transform="translate(-3.95 -5.32)"/><path class="cls-3" d="M269.84,7.5a46.06,46.06,0,0,0,5.35.59c-3.27,1.33-6.56,2.66-9.82,4.06a.38.38,0,0,0-.31-.55c-25.73-1.32-51.63-2.53-77.39-1.25l7.14-2.87a.56.56,0,0,0,.34-.38c5.93.52,12.16-.33,18.11-.48q9.45-.25,18.92-.19,18.62.11,37.19,1.35A.45.45,0,0,0,269.84,7.5Z" transform="translate(-3.95 -5.32)"/><path class="cls-3" d="M265,12.33c-2.81,1.21-5.61,2.46-8.34,3.82-14.88-1-29.83-1.32-44.74-1.27-13.9,0-27.93.19-41.8,1.33a123.26,123.26,0,0,0,16.24-5.33c13.21-.12,26.4-.4,39.61-.12C238.94,11,251.94,11.78,265,12.33Z" transform="translate(-3.95 -5.32)"/><path class="cls-3" d="M256,17.46c.11,9.92.29,19.84.28,29.76,0,9.7-.58,19.49-.19,29.19q-22.11.24-44.22.51c-14.81.17-29.7-.09-44.49.57a.54.54,0,0,0-.3.1h-.78a.39.39,0,0,0,.13-.28c.46-4.81,0-9.81,0-14.66q-.06-7.64,0-15.26,0-15,.33-29.93a.67.67,0,0,0,0-.22.41.41,0,0,0,.39.2C182,16.91,196.91,16,211.87,16c14.75-.05,29.48.45,44.21,1.16A.57.57,0,0,0,256,17.46Zm-65.37,4.86a.52.52,0,0,0,0-1c-6.68-.2-13.5-.3-20.16.1a.42.42,0,0,0,0,.83C177.12,22.61,183.94,22.51,190.62,22.32Zm-.08,8.12a.48.48,0,0,0-.26-.92c-3.17.47-6.81-.26-10-.45a84.28,84.28,0,0,0-9.79-.32c-.27,0-.36.44-.07.5a87.42,87.42,0,0,0,10.47,1C183.76,30.4,187.79,31.42,190.54,30.44Zm-.23-4.27a.55.55,0,0,0,0-1.09c-6.41-.18-13.16-.83-19.54-.12-.27,0-.39.48-.07.53C177.08,26.46,183.86,26.09,190.31,26.17Z" transform="translate(-3.95 -5.32)"/><path class="cls-1" d="M190.62,21.28a.52.52,0,0,1,0,1c-6.68.19-13.5.29-20.16-.11a.42.42,0,0,1,0-.83C177.12,21,183.94,21.08,190.62,21.28Z" transform="translate(-3.95 -5.32)"/><path class="cls-1" d="M190.28,29.52a.48.48,0,0,1,.26.92c-2.75,1-6.78,0-9.66-.23a87.42,87.42,0,0,1-10.47-1c-.29-.06-.2-.48.07-.5a84.28,84.28,0,0,1,9.79.32C183.47,29.26,187.11,30,190.28,29.52Z" transform="translate(-3.95 -5.32)"/><path class="cls-1" d="M190.31,25.08a.55.55,0,0,1,0,1.09c-6.45-.08-13.23.29-19.61-.68-.32,0-.2-.5.07-.53C177.15,24.25,183.9,24.9,190.31,25.08Z" transform="translate(-3.95 -5.32)"/><path class="cls-2" d="M165.35,36.39c0,2.93,0,5.85-.07,8.78a3.77,3.77,0,0,1-3.91,1.14A8.18,8.18,0,0,0,163,43.57c.22-.63-.75-.87-1-.27a8,8,0,0,1-8.48,4.92,17,17,0,0,0,3.64-4.55c.31-.59-.59-1.12-.9-.53-2.28,4.27-5.65,7.1-10.43,5.79a11.94,11.94,0,0,0,5.67-5.1.55.55,0,0,0-.95-.55A10.5,10.5,0,0,1,137,47.82c4.44-4.43,8.84-8.91,13.36-13.26,2.87-2.76,6.26-4.74,9.92-2.1C162,33.72,163.49,35.27,165.35,36.39Z" transform="translate(-3.95 -5.32)"/><text class="cls-4" transform="translate(167.86 46.17)">НЕСУ ДОБРО</text><path class="cls-5" d="M51.58,19.85a7.14,7.14,0,0,0-1.23-3.55c-4.31-5.86-37.23,4-44.83,8.58-3.9,2.36.74,3.5.42,7.63C3.29,40.71,6,58.76,9,62.86a4,4,0,0,0,.81.9c7,6.21,19.62,10.77,30,4.54C41.22,67.11,43.12,66,44,64.64c3.46-5.45,7.79-12,8.26-16.33C53.15,40.45,52.28,25.57,51.58,19.85Zm-5.79,25.5a46.47,46.47,0,0,1-6,15.29,13.47,13.47,0,0,1-5.83,5.12c-3.12,1.31-6.66.45-9.77-.48-5.18-1.55-9-4.56-11.1-9.13s-2.79-9.87-3.38-14.9c-.29-2.48-1-5.08-.68-7.58.42-3.1,3-5.38,5.73-7,4.91-2.32,10.48-3.73,15.81-5,2.4-.57,13-3.88,14.62-1a4.06,4.06,0,0,1,.38,1.54C46.32,29.59,47.45,38,45.79,45.35Z" transform="translate(-3.95 -5.32)"/><text class="cls-6" transform="matrix(1.08, -0.2, 0.22, 0.98, 13, 53.29)">е</text><text class="cls-7" transform="translate(48.68 48.59) scale(0.95 1)">кит</text></svg>