<svg id="Слой_1" data-name="Слой 1" xmlns="http://www.w3.org/2000/svg" viewBox="0 0 300 80"><defs><style>.cls-1{fill:#1c1c1b;}.cls-2{fill:#f4f4f4;}.cls-3{fill:#ae7f4a;}.cls-4{font-size:14.88px;}.cls-4,.cls-6,.cls-7{font-family:FontOfKindness-Bold, Font Of Kindness;font-weight:700;}.cls-5,.cls-6{fill:#fa2323;}.cls-6{font-size:45.04px;}.cls-7{font-size:38.7px;fill:#fff;letter-spacing:0.02em;}</style></defs><title>Монтажная область 1</title><path class="cls-1" d="M297.9,39a.26.26,0,0,1,0,.27c-1.3,3.09-4.84,3.55-8.25,2.88a7.4,7.4,0,0,1-8.41,2.76,7.93,7.93,0,0,1-4.34,1.74.19.19,0,0,1,.05.13c.62,4.44,1.06,9,1.29,13.45a.43.43,0,0,1-.54.45c-.39.34-.8.66-1.22,1a.43.43,0,0,1-.18.38c-3.09,2.48-6.23,4.91-9.38,7.32-2.93,2.25-6.13,5.51-9.63,6.76a.2.2,0,0,1-.23-.18.12.12,0,0,1,0-.09c1.95-2.63,5.28-4.4,7.87-6.38,3.55-2.7,7-5.46,10.56-8.2a.6.6,0,0,1,.49-.11c.39-.41.79-.82,1.22-1.19-.55-4.32-.92-8.72-1.1-13.06a.33.33,0,0,1,.07-.21,8.42,8.42,0,0,1-4.12-1.13l0,0a4.59,4.59,0,0,1-4.62-1.11c-.5-.51-2.3-4-3.26-4.54a.41.41,0,0,1-.33.15h-.18a.48.48,0,0,1-.41-.24,1.39,1.39,0,0,1-.06-.13.49.49,0,0,1-.06-.29.34.34,0,0,1-.25-.46c2.2-5.64,5.71-12.34,12.5-13a3,3,0,0,1,.42,0,.8.8,0,0,1,0-.15c0-5.92-.3-11.95.12-17.87-6.22,2.74-12.5,5.56-18.9,7.85a.45.45,0,0,1-.23.38.53.53,0,0,1,.14.33c.28,9.92.31,19.85.3,29.77s.35,19.84-.48,29.63a.57.57,0,0,0,0,.13.38.38,0,0,1-.05.16.51.51,0,0,1-.5.37L211.71,77c-14.81.18-29.68.78-44.49.47a.5.5,0,0,1-.29-.9.53.53,0,0,1,.29-.1c14.79-.66,29.68-.4,44.49-.57l44.22-.52c-.38-9.69.19-19.48.2-29.18,0-9.92-.17-19.84-.28-29.77a.49.49,0,0,1,.09-.3c-14.74-.71-29.46-1.21-44.22-1.17-15,0-29.86.93-44.81,1.45a.4.4,0,0,1-.39-.21.43.43,0,0,1,0,.23q-.28,15-.33,29.93,0,7.64,0,15.26c0,4.85.46,9.84,0,14.66a.38.38,0,0,1-.76,0c-.63-5-.31-10.24-.35-15.26s0-9.78,0-14.66v-.85a4.22,4.22,0,0,1-4.56.43,8.09,8.09,0,0,1-7.71,1.87.4.4,0,0,1-.13-.07c-2.42,1.87-5.33,2.75-7.88.48a12,12,0,0,1-9.23-.77.56.56,0,0,1-.11-.87l9.33-9.27c2.44-2.43,4.8-5.34,7.76-7.16,5.38-3.32,8.61,1.23,12.61,4.16q.07-8.94.25-17.88a.56.56,0,0,1,1-.26.7.7,0,0,1-.05-.25h0a.32.32,0,0,1-.17-.62c4.6-1.86,9.47-3.1,14.17-4.71s9.35-3.36,14-5.21a.43.43,0,0,1,.56.16c5.84-1.18,12.25-.87,18.19-1q9.15-.25,18.31-.22c12.55,0,25.11.51,37.64,1.34a46.65,46.65,0,0,1,7.1.52.38.38,0,0,1,.34.36.36.36,0,0,1,.2.3c.55,6.25.2,12.65.2,18.92a.42.42,0,0,1,0,.16c3.31.3,6,2.61,8.77,4.44,4,2.7,8.06,5.34,12,8.11A.53.53,0,0,1,297.9,39Zm-14-.41c3.63,2.5,9.47,4.07,13.07.74-3.15-2.06-6.26-4.19-9.39-6.29-2.84-1.92-5.93-4.76-9.26-5.75-7.52-2.23-11.78,6.13-14.51,11.61,1-.15,1.93,1.11,2.44,1.89s.87,1.67,1.43,2.43a4.34,4.34,0,0,0,3.6,1.76,8,8,0,0,1-2.67-3.61c-.19-.52.64-.86.89-.38,2.24,4.38,6.62,5.77,10.9,3.58a7.24,7.24,0,0,1-3.13-2.77c-.28-.47.4-1,.76-.59,3.07,3.64,7.38,3.85,10.71.73a16,16,0,0,1-5.48-2.52C282.78,39,283.41,38.2,283.9,38.54ZM275.05,7.07a43.53,43.53,0,0,1-5.35-.58.44.44,0,0,1-.47.27Q250.64,5.53,232,5.42q-9.45-.06-18.91.18c-6,.16-12.19,1-18.11.49a.55.55,0,0,1-.35.38l-7.14,2.87c25.76-1.29,51.66-.07,77.39,1.24a.39.39,0,0,1,.31.56C268.48,9.74,271.78,8.41,275.05,7.07Zm-18.58,8.07c2.72-1.36,5.52-2.61,8.34-3.82-13-.56-26-1.29-39-1.57-13.21-.28-26.4,0-39.61.12a123.75,123.75,0,0,1-16.24,5.33c13.87-1.14,27.9-1.29,41.79-1.34C226.64,13.82,241.58,14.15,256.47,15.14Zm-91.33,29c0-2.93,0-5.86.06-8.78-1.85-1.12-3.31-2.67-5.06-3.93-3.67-2.64-7.06-.66-9.93,2.1-4.52,4.34-8.91,8.83-13.35,13.26a10.52,10.52,0,0,0,13.56-4.54.54.54,0,0,1,.94.55,12,12,0,0,1-5.67,5.1c4.78,1.31,8.16-1.52,10.43-5.79.32-.59,1.22-.06.9.53a17,17,0,0,1-3.64,4.55,8,8,0,0,0,8.49-4.92c.24-.6,1.2-.36,1,.27a8,8,0,0,1-1.63,2.74A3.8,3.8,0,0,0,165.14,44.16Z"/><path class="cls-2" d="M297,39.28c-3.6,3.33-9.44,1.76-13.07-.74-.49-.34-1.12.46-.64.83a16,16,0,0,0,5.48,2.52C285.41,45,281.1,44.8,278,41.16c-.36-.43-1,.12-.76.59a7.24,7.24,0,0,0,3.13,2.77c-4.28,2.19-8.66.8-10.9-3.58-.25-.48-1.08-.14-.89.38a8,8,0,0,0,2.67,3.61,4.34,4.34,0,0,1-3.6-1.76c-.56-.76-.93-1.64-1.43-2.43s-1.42-2-2.44-1.89c2.73-5.48,7-13.84,14.51-11.61,3.33,1,6.42,3.83,9.26,5.75C290.71,35.09,293.82,37.22,297,39.28Z"/><path class="cls-3" d="M277.27,59.9c-.43.37-.83.78-1.22,1.19a.6.6,0,0,0-.49.11c-3.52,2.74-7,5.5-10.56,8.2-2.59,2-5.92,3.75-7.87,6.38a.12.12,0,0,0,0,.09l-.34,0c.83-9.79.48-19.81.48-29.63s0-19.85-.3-29.77a.53.53,0,0,0-.14-.33.45.45,0,0,0,.23-.38c6.4-2.29,12.68-5.11,18.9-7.85-.42,5.92-.12,12-.12,17.87a.8.8,0,0,0,0,.15,3,3,0,0,0-.42,0c-6.79.65-10.3,7.35-12.5,13a.34.34,0,0,0,.25.46.49.49,0,0,0,.06.29,1.39,1.39,0,0,0,.06.13.48.48,0,0,0,.41.24h.18a.41.41,0,0,0,.33-.15c1,.49,2.76,4,3.26,4.54a4.59,4.59,0,0,0,4.62,1.11l0,0a8.42,8.42,0,0,0,4.12,1.13.33.33,0,0,0-.07.21C276.35,51.18,276.72,55.58,277.27,59.9Z"/><path class="cls-3" d="M269.7,6.49a43.53,43.53,0,0,0,5.35.58c-3.27,1.34-6.57,2.67-9.83,4.07a.39.39,0,0,0-.31-.56c-25.73-1.31-51.63-2.53-77.39-1.24l7.14-2.87a.55.55,0,0,0,.35-.38c5.92.52,12.16-.33,18.11-.49q9.45-.24,18.91-.18,18.61.11,37.2,1.34A.44.44,0,0,0,269.7,6.49Z"/><path class="cls-3" d="M264.81,11.32c-2.82,1.21-5.62,2.46-8.34,3.82-14.89-1-29.83-1.32-44.75-1.28-13.89.05-27.92.2-41.79,1.34a123.75,123.75,0,0,0,16.24-5.33c13.21-.12,26.4-.4,39.61-.12C238.8,10,251.8,10.76,264.81,11.32Z"/><path class="cls-3" d="M255.85,16.44c.11,9.93.29,19.85.28,29.77,0,9.7-.58,19.49-.2,29.18l-44.22.52c-14.81.17-29.7-.09-44.49.57a.53.53,0,0,0-.29.1h-.79a.39.39,0,0,0,.13-.28c.46-4.82,0-9.81,0-14.66q0-7.64,0-15.26,0-15,.33-29.93a.43.43,0,0,0,0-.23.4.4,0,0,0,.39.21c15-.52,29.85-1.4,44.81-1.45,14.76,0,29.48.46,44.22,1.17A.49.49,0,0,0,255.85,16.44Zm-65.38,4.87a.53.53,0,0,0,0-1c-6.67-.19-13.49-.29-20.15.11a.42.42,0,0,0,0,.83C177,21.6,183.8,21.5,190.47,21.31Zm-.08,8.12a.48.48,0,0,0-.25-.92c-3.18.47-6.82-.26-10-.45a82.05,82.05,0,0,0-9.79-.32c-.27,0-.36.44-.07.5a89.5,89.5,0,0,0,10.48,1C183.61,29.39,187.64,30.41,190.39,29.43Zm-.23-4.27a.55.55,0,0,0,0-1.09c-6.41-.18-13.16-.83-19.53-.12-.27,0-.4.48-.08.53C176.93,25.45,183.71,25.08,190.16,25.16Z"/><path class="cls-1" d="M190.47,20.26a.53.53,0,0,1,0,1c-6.67.19-13.49.29-20.15-.11a.42.42,0,0,1,0-.83C177,20,183.8,20.07,190.47,20.26Z"/><path class="cls-1" d="M190.14,28.51a.48.48,0,0,1,.25.92c-2.75,1-6.78,0-9.65-.23a89.5,89.5,0,0,1-10.48-1c-.29-.06-.2-.48.07-.5a82.05,82.05,0,0,1,9.79.32C183.32,28.25,187,29,190.14,28.51Z"/><path class="cls-1" d="M190.16,24.07a.55.55,0,0,1,0,1.09c-6.45-.08-13.23.29-19.61-.68-.32-.05-.19-.5.08-.53C177,23.24,183.75,23.89,190.16,24.07Z"/><path class="cls-2" d="M165.2,35.38c0,2.92,0,5.85-.06,8.78a3.8,3.8,0,0,1-3.92,1.14,8,8,0,0,0,1.63-2.74c.22-.63-.74-.87-1-.27a8,8,0,0,1-8.49,4.92A17,17,0,0,0,157,42.66c.32-.59-.58-1.12-.9-.53-2.27,4.27-5.65,7.1-10.43,5.79a12,12,0,0,0,5.67-5.1.54.54,0,0,0-.94-.55,10.52,10.52,0,0,1-13.56,4.54c4.44-4.43,8.83-8.92,13.35-13.26,2.87-2.76,6.26-4.74,9.93-2.1C161.89,32.71,163.35,34.26,165.2,35.38Z"/><text class="cls-4" transform="translate(171.66 50.48)">НЕСУ ДОБРО</text><path class="cls-5" d="M62.46,17.64A8.18,8.18,0,0,0,61,13.56c-4.95-6.75-42.88,4.61-51.63,9.88-4.49,2.71.85,4,.49,8.79-3.06,9.45.1,30.23,3.56,35a4.84,4.84,0,0,0,.94,1c8,7.16,22.6,12.41,34.51,5.23,1.62-1.37,3.8-2.69,4.79-4.22,4-6.27,9-13.81,9.51-18.8C64.28,41.37,63.27,24.23,62.46,17.64ZM55.8,47a53.57,53.57,0,0,1-7,17.6,15.31,15.31,0,0,1-6.71,5.9c-3.59,1.51-7.67.53-11.25-.55-6-1.78-10.38-5.25-12.79-10.51C15.59,54,14.86,48.09,14.19,42.3c-.34-2.86-1.16-5.86-.78-8.74.48-3.56,3.45-6.19,6.6-8.09,5.65-2.68,12.07-4.3,18.21-5.76,2.76-.66,15-4.47,16.84-1.12a4.75,4.75,0,0,1,.43,1.78C56.4,28.86,57.71,38.57,55.8,47Z"/><text class="cls-6" transform="matrix(1.08, -0.2, 0.22, 0.98, 22.57, 62.29)">е</text><text class="cls-7" transform="translate(63.67 56.87) scale(0.95 1)">кит</text></svg>