<svg id="Слой_1" data-name="Слой 1" xmlns="http://www.w3.org/2000/svg" viewBox="0 0 140 50"><defs><style>.cls-1{fill:#0068ff;fill-rule:evenodd;}</style></defs><title>logo</title><path class="cls-1" d="M37.8,17.42a12,12,0,0,0,.13,2.08,13.83,13.83,0,0,0,.85,3.1l-4.5.18A10.86,10.86,0,0,0,36.52,20a6.93,6.93,0,0,0,.76-2.08c0-.15,0-.3.07-.46l.45-.06Zm-7.27-6.3a10.7,10.7,0,0,1,3.84,1.52A6.62,6.62,0,0,1,35.87,14a5.16,5.16,0,0,1,.88,1.81,5.54,5.54,0,0,1,.11,1.22,13.06,13.06,0,0,1-3.64-.23,9.52,9.52,0,0,1-1.39-.38,9,9,0,0,1-1.31-.57,8.62,8.62,0,0,1-2.27-1.69,9.06,9.06,0,0,1-1.57-2.34,9,9,0,0,1-.42-1h.1a16.61,16.61,0,0,1,4.17.28ZM11.69,21.78A4.45,4.45,0,0,1,11.63,20a6.14,6.14,0,0,1,.63-1.8,10.5,10.5,0,0,1,2.58-3,17,17,0,0,1,3.48-2.22,22,22,0,0,1,3.91-1.43c.63-.15,1.26-.29,1.89-.39-.16.35-.32.69-.5,1a21.64,21.64,0,0,1-1.7,2.81,22.31,22.31,0,0,1-4.47,4.73c-.22.17-.42.34-.64.5l-.67.46-.34.23-.34.22c-.23.14-.46.29-.7.42a22.4,22.4,0,0,1-2.7,1.31,4.53,4.53,0,0,1-.37-1Zm9.91,5a20.61,20.61,0,0,0,4.14-.48,20.78,20.78,0,0,0,4-1.29,16.39,16.39,0,0,0,3.59-2.12,10.8,10.8,0,0,0,2.75-3.09,6.32,6.32,0,0,0,.72-1.91,2.91,2.91,0,0,0,0-.31,13.2,13.2,0,0,1-3.71-.14A9.39,9.39,0,0,1,31.63,17a10.09,10.09,0,0,1-1.41-.56,9.54,9.54,0,0,1-2.5-1.77,9.73,9.73,0,0,1-1.79-2.49,10.75,10.75,0,0,1-.56-1.31h-.11c-.21.56-.44,1.11-.7,1.65a23.27,23.27,0,0,1-1.67,3,23.53,23.53,0,0,1-4.53,5.18c-.22.19-.44.38-.67.56l-.69.52-.35.26-.36.24c-.23.16-.47.33-.72.48a25.67,25.67,0,0,1-2.47,1.35,7.15,7.15,0,0,0,.72.6,10.61,10.61,0,0,0,3.68,1.56,16.55,16.55,0,0,0,4.1.41Zm8.9-1.37c1.81,2,3.6,3.93,5.37,5.91,2.22,2.49,4.41,5,6.62,7.59L50.61,22.6l-9.09.15a1.22,1.22,0,1,1-2.14,1.18v0h0c-.18-.36-.35-.73-.5-1.1l-4.68.08-.5.43a18,18,0,0,1-3.18,2.06ZM24.55,7.84a24.71,24.71,0,0,1-3.61.44,11.34,11.34,0,0,1-1.76-.06,4.27,4.27,0,0,1-.78-.17L18.2,8a1.1,1.1,0,0,1,.15-.16A3.8,3.8,0,0,1,19,7.35a10.14,10.14,0,0,1,1.6-.73,23.27,23.27,0,0,1,3.5-1c.6-.12,1.2-.23,1.8-.31s1.21-.15,1.81-.18a11.56,11.56,0,0,1,1.77,0,4.72,4.72,0,0,1,.8.16,1.37,1.37,0,0,1,.27.13l0,0,0,0a1.36,1.36,0,0,1-.21.22,3.43,3.43,0,0,1-.67.46,10.73,10.73,0,0,1-1.62.71c-.57.2-1.15.37-1.74.52s-1.18.29-1.78.41Zm-6.4.2Zm0-.14ZM46.28,33l1-2.23c.4.17.81.31,1.22.44a16.59,16.59,0,0,0,3.67.68,20,20,0,0,0,7.17-.83,19.4,19.4,0,0,1-7-.37A14.45,14.45,0,0,1,48.2,29l3.07-6.51h0a.5.5,0,0,0,0-.12.26.26,0,0,0-.27-.25l-9.65.41a11.64,11.64,0,0,1-1.18-3.35A10.47,10.47,0,0,1,40,16.9a19.32,19.32,0,0,0,4.51-2,.13.13,0,0,0-.12-.22,19.44,19.44,0,0,1-4.36,1.85,9,9,0,0,1,.16-1.16,12.79,12.79,0,0,1,1.41-3.65,8.68,8.68,0,0,1,1.12-1.54,4.23,4.23,0,0,1,1.36-1,2.14,2.14,0,0,1,.72-.19,2.25,2.25,0,0,1,.74.07,1.12,1.12,0,0,1,.52.28,1.1,1.1,0,0,1,.27.53,4.36,4.36,0,0,1,0,1.75,12.87,12.87,0,0,1-.54,1.92,31.1,31.1,0,0,1-1.69,3.79c-.65,1.24-1.35,2.46-2.09,3.64v0a.66.66,0,0,0,1.1.72,31.27,31.27,0,0,1,4.07-4.88,10.21,10.21,0,0,1,2.48-1.82A3.44,3.44,0,0,1,51,14.57a2.34,2.34,0,0,1,.64.12,1.92,1.92,0,0,1,.55.33,1.67,1.67,0,0,1,.52,1.14,2.22,2.22,0,0,1-.07.68,3,3,0,0,1-.27.68,6.11,6.11,0,0,1-.87,1.25,8.14,8.14,0,0,1-1.13,1.07,6.81,6.81,0,0,1-2.82,1.26,9.5,9.5,0,0,1-3.15.1h0a.23.23,0,0,0-.25.19.22.22,0,0,0,.19.26,10.27,10.27,0,0,0,3.32,0,7.49,7.49,0,0,0,3.11-1.27A9,9,0,0,0,52,19.26a7.09,7.09,0,0,0,1-1.38,3.42,3.42,0,0,0,.48-1.75,2.51,2.51,0,0,0-.75-1.76A2.76,2.76,0,0,0,51,13.64a4.23,4.23,0,0,0-1.79.39,7.82,7.82,0,0,0-1.49.86,13.29,13.29,0,0,0-1.31,1c.3-.62.58-1.25.84-1.9A15,15,0,0,0,48,11.88a7.32,7.32,0,0,0,.19-1.17,4.84,4.84,0,0,0-.07-1.3,2.82,2.82,0,0,0-.67-1.35,2.9,2.9,0,0,0-1.29-.81,3.92,3.92,0,0,0-1.36-.18,4.22,4.22,0,0,0-1.34.29,6.17,6.17,0,0,0-2.06,1.43,11,11,0,0,0-1.44,1.85,14.78,14.78,0,0,0-1.78,4.21A12.5,12.5,0,0,0,37.81,17l-.44.05a5.15,5.15,0,0,0-.14-1.29,5.35,5.35,0,0,0-.95-2,7,7,0,0,0-1.61-1.51,11.64,11.64,0,0,0-4-1.67,17.8,17.8,0,0,0-4.31-.4h-.29c-.09-.33-.17-.67-.24-1h0a.47.47,0,0,0-.13-.24A21.7,21.7,0,0,0,28.49,8a13.65,13.65,0,0,0,1.78-.84,4.62,4.62,0,0,0,.86-.6,2.51,2.51,0,0,0,.41-.48L31.63,6c0-.06.05-.13.07-.2a1.14,1.14,0,0,0,0-.49,1,1,0,0,0-.21-.45,1.07,1.07,0,0,0-.14-.16.72.72,0,0,0-.15-.11,2.31,2.31,0,0,0-.56-.29,5.62,5.62,0,0,0-1-.23,14.36,14.36,0,0,0-2-.09,23,23,0,0,0-3.81.43,24.17,24.17,0,0,0-3.7,1,13.08,13.08,0,0,0-1.8.81,5.89,5.89,0,0,0-.89.61,2.41,2.41,0,0,0-.42.5.69.69,0,0,0-.1.17,1.13,1.13,0,0,0-.08.22,1.32,1.32,0,0,0,0,.53,1.18,1.18,0,0,0,.22.48,1.33,1.33,0,0,0,.16.17.79.79,0,0,0,.15.12,2,2,0,0,0,.59.29A4.62,4.62,0,0,0,19,9.52a11.86,11.86,0,0,0,2,.06A24.2,24.2,0,0,0,24.8,9.1l.14,0v0h0c-.14.4-.29.78-.45,1.17-.82.09-1.64.22-2.44.39A23.32,23.32,0,0,0,17.89,12,18.08,18.08,0,0,0,14.1,14.2a11.8,11.8,0,0,0-3,3.32,7.54,7.54,0,0,0-.84,2.19,5.76,5.76,0,0,0,0,2.41,5.32,5.32,0,0,0,.44,1.17,23.15,23.15,0,0,1-5.14,1.07h0a1,1,0,1,0,.25,1.93,24.45,24.45,0,0,0,6-1.55,8.25,8.25,0,0,0,1.33,1.11,11.85,11.85,0,0,0,4.18,1.62,17.9,17.9,0,0,0,4.38.27,22.15,22.15,0,0,0,4.29-.67,21.75,21.75,0,0,0,2.73-.89c-.13.46-.27.91-.44,1.36a16.8,16.8,0,0,1-1.38,2.83,17.1,17.1,0,0,1-4.34,4.76,17.27,17.27,0,0,0,2.83-1.75,18.44,18.44,0,0,0,2.49-2.28,18.63,18.63,0,0,0,2.05-2.76c.3-.5.58-1,.83-1.54l.75.88A17.52,17.52,0,0,1,32,29.85,18.23,18.23,0,0,1,32.26,33a17.3,17.3,0,0,1-.35,3.19A16.5,16.5,0,0,1,31,39.3a17.48,17.48,0,0,0,1.54-2.94,18.64,18.64,0,0,0,1-3.24,18.21,18.21,0,0,0,.33-2.67l.87,1c2.5,2.91,5,5.77,7.56,8.58h0a.42.42,0,0,0,.15.11.49.49,0,0,0,.64-.23l2.46-5.22A16.61,16.61,0,0,0,49,36a20,20,0,0,0,7.21.36,19.27,19.27,0,0,1-6.82-1.52A14.57,14.57,0,0,1,46.28,33Z"/><path class="cls-1" d="M27.68,21.15a1.7,1.7,0,0,1-.39,1.46,2.34,2.34,0,0,1-1.27.75,2.18,2.18,0,0,1-1.39-.13,1.27,1.27,0,0,1-.76-.9l0-.08a.49.49,0,0,0-.92.34v0a2.06,2.06,0,0,0,.6.84,2.28,2.28,0,0,0,.85.46,2.77,2.77,0,0,0,1.78-.09,2.73,2.73,0,0,0,1.33-1.08A1.82,1.82,0,0,0,27.68,21.15Z"/><path class="cls-1" d="M29.12,40.26a3.78,3.78,0,0,1-2.32,1.9,8.78,8.78,0,0,1-3.33.52,6.68,6.68,0,0,1-2-2.37,3.85,3.85,0,0,1-.38-1.56,3.48,3.48,0,0,1,.29-1.58,2.17,2.17,0,0,1,1.12-1.05A2.09,2.09,0,0,1,24,36a1.91,1.91,0,0,1,1.06,1.19,2.15,2.15,0,0,1,.13.84,1.49,1.49,0,0,1,0,.21l0,.22-.06.21a.66.66,0,0,0,0,.15.86.86,0,0,0,0,.15,1.64,1.64,0,0,0,.15-.07l.08,0a.09.09,0,0,1,.05,0,1.33,1.33,0,0,1,.19-.14,4.25,4.25,0,0,1,.39-.25,4.31,4.31,0,0,1,.81-.39,2.79,2.79,0,0,1,1.62-.14,1.06,1.06,0,0,1,.83.87,2.69,2.69,0,0,1-.08,1.46Zm.56-2.89a2.11,2.11,0,0,0-1.16-.44,3.4,3.4,0,0,0-2.06.55,4.91,4.91,0,0,0-.79.64l-.29.33,0-.13a2,2,0,0,0,0-.24,2.49,2.49,0,0,0-.06-.94,2.31,2.31,0,0,0-1.17-1.5,2.2,2.2,0,0,0-1-.22,2.67,2.67,0,0,0-1,.16,2.8,2.8,0,0,0-.88.48,2.74,2.74,0,0,0-.67.77,4.38,4.38,0,0,0-.5,1.91,4.84,4.84,0,0,0,.34,1.95,6.7,6.7,0,0,0,1,1.67,9.27,9.27,0,0,0,1.37,1.36.54.54,0,0,0,.27.11h0a13.33,13.33,0,0,0,2,0,10.16,10.16,0,0,0,2-.34,5.86,5.86,0,0,0,1.93-.94,4.84,4.84,0,0,0,.81-.82,3.72,3.72,0,0,0,.52-1.08,3.82,3.82,0,0,0,.14-1.15,3.62,3.62,0,0,0-.23-1.15A2.36,2.36,0,0,0,29.68,37.37Z"/><path class="cls-1" d="M23.55,18.87c0-.64-.3-1.16-.69-1.16s-.69.52-.69,1.16.31,1.15.69,1.15S23.55,19.5,23.55,18.87Z"/><path class="cls-1" d="M26.79,19.57c.39,0,.7-.52.7-1.16s-.31-1.15-.7-1.15-.69.52-.69,1.15S26.41,19.57,26.79,19.57Z"/><path class="cls-1" d="M67.21,9.65a.45.45,0,0,0,.51-.46.47.47,0,0,0-.51-.47H67v.93ZM67.26,8a1.24,1.24,0,0,1,.92.32,1.11,1.11,0,0,1,.32.83,1.15,1.15,0,0,1-.33.85,1.3,1.3,0,0,1-1,.34h-1V6.92h1.87v.71H67V8Z"/><path class="cls-1" d="M71.81,6.92v3.44H71V7.63h-.62l-.24,1.69c-.09.73-.46,1.11-1,1.11a1.26,1.26,0,0,1-.59-.15l.24-.67a.35.35,0,0,0,.57-.28l.36-2.41Z"/><path class="cls-1" d="M73.4,9.26h.68l-.34-.82-.34.82Zm1.12,1.1L74.36,10H73.12l-.16.39H72.1l1.64-3.51,1.64,3.51Z"/><polygon class="cls-1" points="75.67 10.36 75.67 6.92 77.61 6.92 77.61 7.63 76.44 7.63 76.44 10.36 75.67 10.36"/><path class="cls-1" d="M79.59,9.73a1,1,0,0,0,.75-.32,1.08,1.08,0,0,0,.3-.77,1.12,1.12,0,0,0-.3-.78,1.06,1.06,0,0,0-.75-.31,1,1,0,0,0-.74.31,1.09,1.09,0,0,0-.31.78,1,1,0,0,0,.31.77,1,1,0,0,0,.74.32Zm0-2.88a1.79,1.79,0,0,1,1.3.52,1.79,1.79,0,0,1,0,2.54,1.79,1.79,0,0,1-1.3.52,1.77,1.77,0,0,1-1.29-.52,1.76,1.76,0,0,1,0-2.54A1.77,1.77,0,0,1,79.59,6.85Z"/><polygon class="cls-1" points="81.57 6.92 83.76 6.92 83.76 7.63 83.06 7.63 83.06 10.36 82.28 10.36 82.28 7.63 81.57 7.63 81.57 6.92"/><path class="cls-1" d="M85.09,9.65c.34,0,.51-.11.51-.35S85.42,9,85.09,9H84.9v.7Zm-.19-2v.62H85q.42,0,.42-.33c0-.2-.14-.29-.42-.29Zm1.48,1.74a1,1,0,0,1-1.08,1H84.12V6.92H85c.76,0,1.2.34,1.2.94a.8.8,0,0,1-.43.7A.83.83,0,0,1,86.38,9.37Z"/><path class="cls-1" d="M88.5,9.73a1,1,0,0,0,.75-.32,1.08,1.08,0,0,0,.3-.77,1.12,1.12,0,0,0-.3-.78,1.06,1.06,0,0,0-.75-.31,1,1,0,0,0-.74.31,1.09,1.09,0,0,0-.31.78,1,1,0,0,0,.31.77,1,1,0,0,0,.74.32Zm0-2.88a1.79,1.79,0,0,1,1.3.52,1.79,1.79,0,0,1,0,2.54,1.89,1.89,0,0,1-2.6,0,1.79,1.79,0,0,1,0-2.54A1.79,1.79,0,0,1,88.5,6.85Z"/><path class="cls-1" d="M91.65,8.68a.52.52,0,0,0,.56-.53.5.5,0,0,0-.56-.52h-.14v1Zm0-1.76a1.35,1.35,0,0,1,1,.35,1.2,1.2,0,0,1,.33.86,1.28,1.28,0,0,1-.33.88,1.19,1.19,0,0,1-.92.37h-.23v1h-.78V6.92Z"/><polygon class="cls-1" points="94.14 6.92 94.14 8.84 95.3 6.92 95.93 6.92 95.93 10.36 95.15 10.36 95.15 8.44 93.98 10.36 93.36 10.36 93.36 6.92 94.14 6.92"/><polygon class="cls-1" points="96.29 6.92 98.47 6.92 98.47 7.63 97.77 7.63 97.77 10.36 96.99 10.36 96.99 7.63 96.29 7.63 96.29 6.92"/><polygon class="cls-1" points="100.78 7.63 99.61 7.63 99.61 8.48 100.47 8.48 100.47 9.19 99.61 9.19 99.61 9.65 100.78 9.65 100.78 10.36 98.84 10.36 98.84 6.92 100.78 6.92 100.78 7.63"/><path class="cls-1" d="M104.27,6.92v3.44h-.78V7.63h-.63l-.23,1.69c-.1.73-.47,1.11-1,1.11a1.26,1.26,0,0,1-.59-.15l.23-.67a.36.36,0,0,0,.58-.28l.36-2.41Z"/><path class="cls-1" d="M105.82,9.65a.45.45,0,0,0,.51-.46.48.48,0,0,0-.51-.47h-.19v.93ZM105.87,8a1.24,1.24,0,0,1,.92.32,1.11,1.11,0,0,1,.32.83,1.15,1.15,0,0,1-.33.85,1.3,1.3,0,0,1-1,.34h-1V6.92h.78V8Z"/><polygon class="cls-1" points="109.11 6.92 109.89 6.92 109.89 10.36 109.11 10.36 109.11 9.19 108.25 9.19 108.25 10.36 107.47 10.36 107.47 6.92 108.25 6.92 108.25 8.48 109.11 8.48 109.11 6.92"/><path class="cls-1" d="M114,10.36h-.78V6.92H114v3.44Zm-2.54-.71a.45.45,0,0,0,.51-.46.47.47,0,0,0-.51-.47h-.19v.93Zm0-1.63a1.24,1.24,0,0,1,.92.32,1.11,1.11,0,0,1,.32.83,1.15,1.15,0,0,1-.33.85,1.3,1.3,0,0,1-1,.34h-1V6.92h.78V8Z"/><path class="cls-1" d="M116.56,5.91a.67.67,0,0,1-.21.5.71.71,0,0,1-1,0,.67.67,0,0,1-.21-.5h.39a.32.32,0,0,0,.63,0Zm-1.21,1V8.83l1.17-1.91h.62v3.44h-.78V8.44l-1.17,1.92h-.62V6.92Z"/><path class="cls-1" d="M121.28,9.34a.67.67,0,0,0,.42-.22.78.78,0,0,0,.2-.56.77.77,0,0,0-.2-.55.68.68,0,0,0-.42-.23V9.34Zm-.78-1.56a.68.68,0,0,0-.42.23.74.74,0,0,0-.21.55.78.78,0,0,0,.2.56.67.67,0,0,0,.43.22V7.78Zm2,1.54a1.46,1.46,0,0,1-.53.52,1.37,1.37,0,0,1-.66.2v.32h-.78V10a1.45,1.45,0,0,1-1.19-.72,1.44,1.44,0,0,1,0-1.53,1.46,1.46,0,0,1,.53-.52,1.57,1.57,0,0,1,.66-.19V6.77h.78v.31a1.48,1.48,0,0,1,1.18.71,1.36,1.36,0,0,1,.22.77A1.43,1.43,0,0,1,122.47,9.32Z"/><path class="cls-1" d="M124.8,9.73a1,1,0,0,0,.75-.32,1.08,1.08,0,0,0,.3-.77,1.12,1.12,0,0,0-.3-.78,1.06,1.06,0,0,0-.75-.31,1,1,0,0,0-.74.31,1.09,1.09,0,0,0-.31.78,1,1,0,0,0,.31.77,1,1,0,0,0,.74.32Zm0-2.88a1.79,1.79,0,0,1,1.3.52,1.79,1.79,0,0,1,0,2.54,1.79,1.79,0,0,1-1.3.52,1.75,1.75,0,0,1-1.29-.52,1.76,1.76,0,0,1,0-2.54A1.75,1.75,0,0,1,124.8,6.85Z"/><polygon class="cls-1" points="128.67 6.92 129.45 6.92 129.45 10.36 128.67 10.36 128.67 9.19 127.81 9.19 127.81 10.36 127.03 10.36 127.03 6.92 127.81 6.92 127.81 8.48 128.67 8.48 128.67 6.92"/><path class="cls-1" d="M131,9.65h1v-2h-.63l-.36,2Zm1.77,0h.46V10.9h-.78v-.54h-1.87v.54h-.78V9.65h.4l.54-2.73h2Z"/><polygon class="cls-1" points="73.33 14.74 73.33 24.59 70.92 24.59 70.92 17.06 68.33 17.06 68.33 24.59 65.93 24.59 65.93 14.74 73.33 14.74"/><path class="cls-1" d="M82.37,19.67a2.7,2.7,0,1,0-5.39,0,2.7,2.7,0,1,0,5.39,0Zm-2.69-5.09a5.08,5.08,0,1,1-5.09,5.09A5.06,5.06,0,0,1,79.68,14.58Z"/><path class="cls-1" d="M91,22.33V17h-1.7c-.2,3.65-.21,4.57-.59,5.31Zm3.14,0V26H91.9V24.58H87.65V26H85.29V22.6l1-.22a5,5,0,0,0,.51-2.27l.36-5.37h6.32v7.59Z"/><path class="cls-1" d="M99.05,20.67,99,20.9h1.64l-.06-.17-.76-2.14-.73,2.08Zm2.4,2.47H98.09l-.55,1.44H95l3.94-10h1.71l4.1,10H102Z"/><path class="cls-1" d="M109.28,19.39a1.16,1.16,0,0,0,0-2.32h-1.36v2.32Zm0-4.65c4.62,0,4.6,6.92,0,6.92h-1.36v2.92h-2.41V14.74Z"/><path class="cls-1" d="M121.32,19.67a2.7,2.7,0,1,0-5.39,0,2.7,2.7,0,1,0,5.39,0Zm-2.69-5.09a5.08,5.08,0,1,1-5.09,5.09A5.05,5.05,0,0,1,118.63,14.58Z"/><polygon class="cls-1" points="133.1 14.88 129.61 19.63 133.42 24.46 133.42 24.59 130.44 24.59 127.52 20.77 127.52 24.59 125.11 24.59 125.11 14.74 127.52 14.74 127.52 18.56 130.25 14.74 133.1 14.74 133.1 14.88"/><path class="cls-1" d="M69.8,35.43l-.09.23h1.63l0-.17-.76-2.14-.73,2.08Zm2.4,2.47H68.84l-.55,1.45H65.72l3.94-10h1.71l4.1,10H72.75Z"/><polygon class="cls-1" points="78.67 33.21 81.25 33.21 81.25 29.5 83.66 29.5 83.66 39.35 81.25 39.35 81.25 35.53 78.67 35.53 78.67 39.35 76.26 39.35 76.26 29.5 78.67 29.5 78.67 33.21"/><polygon class="cls-1" points="87.75 39.35 85.34 39.35 85.34 29.5 91.81 29.5 91.81 31.79 87.75 31.79 87.75 39.35"/><polygon class="cls-1" points="95.12 37.02 99.2 37.02 99.2 39.35 92.7 39.35 92.7 29.5 99.19 29.5 99.19 31.82 95.12 31.82 95.12 33.25 99.1 33.25 99.1 35.59 95.12 35.59 95.12 37.02"/><polygon class="cls-1" points="105.59 35.49 104.83 33.35 104.1 35.44 102.59 39.35 100.02 39.35 103.96 29.39 105.67 29.39 109.77 39.35 107.05 39.35 105.59 35.49"/><polygon class="cls-1" points="111.23 39.36 112.69 36.01 109.53 29.5 112.2 29.5 113.2 31.55 114 33.47 114.69 31.58 115.59 29.5 118.26 29.5 113.83 39.36 111.23 39.36"/></svg>